<?xml version="1.0" encoding="utf-8"?>
<!-- Generator: Adobe Illustrator 22.0.0, SVG Export Plug-In . SVG Version: 6.00 Build 0)  -->
<svg version="1.1" id="Layer_1" xmlns="http://www.w3.org/2000/svg" xmlns:xlink="http://www.w3.org/1999/xlink" x="0px" y="0px"
	 viewBox="0 0 1280 1024" style="enable-background:new 0 0 1280 1024;" xml:space="preserve">
<style type="text/css">
	.st0{fill:#FFFFFF;stroke:#000000;stroke-width:2;stroke-miterlimit:10;}
	.st1{fill:none;stroke:#000000;stroke-width:2;stroke-miterlimit:10;}
	.st2{fill:#0071BC;stroke:#000000;stroke-width:2;stroke-miterlimit:10;}
	.st3{fill:none;stroke:#000000;stroke-width:3;stroke-miterlimit:10;}
	.st4{fill:#FFFFFF;stroke:#000000;stroke-width:3;stroke-miterlimit:10;}
	.st5{opacity:0.7;fill:none;stroke:#808080;stroke-width:5;stroke-miterlimit:10;}
	.st6{fill:#FFFFFF;stroke:#000000;stroke-width:5;stroke-miterlimit:10;}
	.st7{fill:#FFFFFF;stroke:#000000;stroke-width:4;stroke-miterlimit:10;}
	.st8{fill:#333333;stroke:#000000;stroke-miterlimit:10;}
	.st9{fill:#0071BC;stroke:#F2F2F2;stroke-miterlimit:10;}
	.st10{fill:none;stroke:#1A1A1A;stroke-width:7;stroke-miterlimit:10;}
	.st11{fill:#1A1A1A;stroke:#F2F2F2;stroke-miterlimit:10;}
	.st12{stroke:#F2F2F2;stroke-miterlimit:10;}
	.st13{fill:none;}
	.st14{fill:#231F20;}
	.st15{fill:none;stroke:#000000;stroke-miterlimit:10;}
	.st16{opacity:0.3;fill:none;stroke:#0071BC;stroke-width:4;stroke-miterlimit:10;}
	.st17{fill:#0071BC;stroke:#FFFFFF;stroke-miterlimit:10;}
</style>
<rect x="631" y="322.5" class="st0" width="40.6" height="39.3"/>
<rect x="658.6" y="322" class="st1" width="13.5" height="13"/>
<rect x="644.9" y="322" class="st1" width="13.5" height="13"/>
<rect x="658.6" y="335.1" class="st1" width="13.5" height="13"/>
<rect x="631.1" y="322" class="st1" width="13.5" height="13"/>
<rect x="631.1" y="335.1" class="st1" width="13.5" height="13"/>
<rect x="658.7" y="348.4" class="st1" width="13.5" height="13"/>
<rect x="644.9" y="348.4" class="st1" width="13.5" height="13"/>
<g>
	<rect x="512.6" y="183.4" class="st0" width="13.4" height="13"/>
	<rect x="499" y="183.4" class="st0" width="13.4" height="13"/>
	<rect x="512.6" y="196.5" class="st0" width="13.4" height="13"/>
	<rect x="499" y="196.6" class="st2" width="13.4" height="13"/>
	<rect x="485.3" y="183.4" class="st1" width="13.4" height="13"/>
	<rect x="485.3" y="196.5" class="st0" width="13.4" height="13"/>
	<rect x="512.6" y="209.8" class="st0" width="13.4" height="13"/>
	<rect x="499" y="209.8" class="st0" width="13.4" height="13"/>
	<rect x="485.4" y="209.8" class="st0" width="13.4" height="13"/>
</g>
<rect x="589.6" y="282.6" class="st3" width="40.6" height="39.3"/>
<rect x="672.2" y="282.6" class="st4" width="40.6" height="39.3"/>
<rect x="631" y="282.7" class="st4" width="40.6" height="39.3"/>
<rect x="672.2" y="322.4" class="st4" width="40.6" height="39.3"/>
<rect x="589.6" y="322.4" class="st4" width="40.6" height="39.3"/>
<rect x="672.4" y="362.5" class="st4" width="40.6" height="39.3"/>
<rect x="631.1" y="362.7" class="st4" width="40.6" height="39.3"/>
<rect x="589.8" y="362.6" class="st4" width="40.6" height="39.3"/>
<line class="st5" x1="426.8" y1="127.2" x2="36.7" y2="339.7"/>
<rect x="874.2" y="196.7" class="st6" width="373.6" height="361.3"/>
<rect x="500.3" y="559.4" class="st6" width="373.6" height="361.3"/>
<rect x="873.2" y="559.4" class="st6" width="373.6" height="361.3"/>
<g>
	<g>
		<path d="M192.1,303.3v-1.9h11.4v1.9l-5.2,0.5h-1L192.1,303.3z M205.5,321.9c3.1,0,5-2.1,5-7.4v-13.1h2.3v13.1
			c0,7.4-3.4,10.6-9.2,10.6c-5.2,0-8.9-2.6-8.9-9.3v-3.8c0-3.5,0-7-0.1-10.5h6.1c-0.1,3.4-0.1,7-0.1,10.5v2.7
			C200.6,320,202.2,321.9,205.5,321.9z M211.1,303.6l-3.7-0.3v-1.9h8.4v1.9l-3.6,0.3H211.1z"/>
		<path d="M219.4,324.4c0.1-1.6,0.1-5.2,0.1-7.4v-2c0-1.9,0-2.7-0.1-4.1l-2.1-0.3v-1.4l6.9-2.3l0.6,0.4l0.3,3.9v5.8
			c0,2.2,0,5.8,0.1,7.4H219.4z M226.8,322.8v1.6h-9.2v-1.6l3.2-0.7h2.7L226.8,322.8z M235.7,313v4.1c0,2.2,0,5.8,0.1,7.4H230
			c0.1-1.6,0.1-5.1,0.1-7.4v-3.7c0-2.2-0.6-3-2-3c-1.2,0-2.9,0.9-4.3,2.6h-1.2v-2.3h2.4l-1.3,1c2.5-3.5,4.4-4.7,7-4.7
			C233.6,307,235.7,309,235.7,313z M234,322.1l3.4,0.7v1.6h-9.2v-1.6l3.2-0.7H234z"/>
		<path d="M241.1,324.4c0.1-1.6,0.1-5.2,0.1-7.4v-1.7c0-1.9,0-3-0.1-4.4l-2.2-0.3v-1.4l7.3-2.3l0.6,0.4l-0.1,5.1v4.6
			c0,2.2,0,5.8,0.1,7.4H241.1z M248.5,322.8v1.6h-9.3v-1.6l3.2-0.7h2.6L248.5,322.8z M240.9,301.6c0-1.6,1.3-2.8,3-2.8s3,1.2,3,2.8
			c0,1.6-1.3,2.8-3,2.8S240.9,303.2,240.9,301.6z"/>
		<path d="M259.3,322.1c0.6,0,1.2-0.3,1.9-0.8l0.9,0.8c-0.9,1.8-2.6,2.8-5.1,2.8c-3.2,0-5-1.4-5-4.9c0-1.2,0-2.2,0-3.5v-6.7h-2.3
			v-2.1l4.1-0.5l-2,1.4l2.2-6.1h3.6l-0.1,6.3v10.8C257.5,321.3,258.2,322.1,259.3,322.1z M261.2,307.5v2.4h-6.4v-2.4H261.2z"/>
		<path d="M285.9,322.8v1.6h-14v-1.6l4.5-1h5.4L285.9,322.8z M281.4,302l0.5,0.4l-0.1,5v9.8c0,2.4,0,4.9,0.1,7.3H276
			c0.1-2.4,0.1-4.9,0.1-7.3v-11.5l-3.4,0.3v-2L281.4,302z"/>
	</g>
</g>
<rect x="526.9" y="144.1" class="st4" width="40.6" height="39.3"/>
<rect x="485.7" y="144.2" class="st4" width="40.6" height="39.3"/>
<rect x="526.9" y="183.9" class="st4" width="40.6" height="39.3"/>
<rect x="444.3" y="183.9" class="st4" width="40.6" height="39.3"/>
<rect x="527" y="224.1" class="st4" width="40.6" height="39.3"/>
<rect x="485.8" y="224.2" class="st4" width="40.6" height="39.3"/>
<rect x="444.4" y="224.1" class="st4" width="40.6" height="39.3"/>
<rect x="714.8" y="161.5" class="st7" width="122.9" height="119.1"/>
<rect x="589.9" y="161.8" class="st7" width="122.9" height="119.1"/>
<rect x="714.8" y="282" class="st7" width="122.9" height="119.1"/>
<rect x="466.3" y="282.1" class="st7" width="122.9" height="119.1"/>
<rect x="715.2" y="402" class="st7" width="122.9" height="119.1"/>
<rect x="590.3" y="402.3" class="st7" width="122.9" height="119.1"/>
<rect x="466.6" y="402.1" class="st7" width="122.9" height="119.1"/>
<rect x="644.9" y="335.1" class="st2" width="13.5" height="13"/>
<rect x="458.9" y="132" class="st0" width="13.4" height="13"/>
<rect x="445.3" y="132" class="st0" width="13.4" height="13"/>
<rect x="458.9" y="145.1" class="st0" width="13.4" height="13"/>
<rect x="445.3" y="145.1" class="st2" width="13.4" height="13"/>
<rect x="420.1" y="120.7" class="st8" width="13.4" height="13"/>
<rect x="431.6" y="145.1" class="st0" width="13.4" height="13"/>
<rect x="458.9" y="158.3" class="st0" width="13.4" height="13"/>
<rect x="445.3" y="158.4" class="st0" width="13.4" height="13"/>
<rect x="431.7" y="158.4" class="st0" width="13.4" height="13"/>
<polygon class="st9" points="257.2,466.6 251.4,474 242.1,472.7 238.6,464 244.4,456.6 253.7,457.9 "/>
<rect x="36.7" y="339.7" class="st10" width="391" height="383"/>
<polygon class="st11" points="205.8,427.7 200,435.1 190.7,433.8 187.2,425 193,417.7 202.3,419 "/>
<polygon class="st11" points="236.2,555.5 230.4,562.9 221.1,561.6 217.6,552.9 223.4,545.5 232.7,546.8 "/>
<polygon class="st9" points="374.2,412.7 368.4,420.1 359.1,418.7 355.6,410 361.4,402.7 370.7,404 "/>
<polygon class="st11" points="160.4,659.9 154.6,667.2 145.3,665.9 141.8,657.2 147.6,649.8 156.9,651.2 "/>
<polygon class="st9" points="358.6,668.6 352.8,676 343.5,674.6 340,665.9 345.8,658.5 355.1,659.9 "/>
<polygon class="st11" points="102.8,487.7 97,495.1 87.7,493.8 84.2,485.1 90,477.7 99.3,479 "/>
<polygon class="st12" points="384.2,475.3 378.5,482.6 369.2,481.3 365.7,472.6 371.5,465.2 380.8,466.5 "/>
<g>
	<g>
		<path d="M133.5,371.4c1.9-0.7,3.8-1,6-1c5.9,0,9.5,2.6,9.5,7.6c0,5.2-4.4,8-10.2,8c-4.9,0-7.8-2.5-8-6.3c0.4-1.1,1.4-1.7,2.5-1.7
			c1.6,0,2.5,0.9,2.7,3.2l0.4,3.5l-1.2-1.3c1,0.5,1.6,0.6,2.6,0.6c2.8,0,4.8-2,4.8-5.3c0-3.6-1.7-5.5-4.7-5.5
			c-1.2,0-2.4,0.1-3.6,0.4l-1.1-0.8l0.8-11.7H148v4.7h-13.3l1.6-3.5l-0.7,9.6h-2.2V371.4z"/>
	</g>
</g>
<g>
	<rect x="88.1" y="368.4" class="st13" width="36.8" height="10.8"/>
	<polygon class="st14" points="110.1,379.2 124.9,373.8 110.1,368.4 110.1,371.5 88.1,371.5 88.1,376 110.1,376 	"/>
</g>
<g>
	<g>
		<path d="M67.4,373.5l1.2,0.6c-2.2,2-3.1,3.5-3.1,5.7c0,2.4,1.5,4.1,3.7,4.1c2.2,0,3.3-1.6,3.3-3.5c0-2.2-1.3-3.7-5.7-5.6
			c-3.8-1.7-5.9-4.2-5.9-7.4c0-4.2,3.6-6.9,8.5-6.9c5.3,0,7.7,2.5,7.7,5.6c0,2.3-1.6,4.4-6.4,6.2l-1-0.6c2.1-2.3,2.7-3.7,2.7-5.7
			c0-1.9-1.2-3.4-3.1-3.4c-1.7,0-3.2,1.2-3.2,3.1c0,1.8,0.9,3.4,5.5,5.5c4.3,1.9,6.4,4.3,6.4,7.8c0,4.3-3.4,7-9.3,7
			c-5.5,0-8.2-2.3-8.2-5.8C60.4,377.1,62.9,374.9,67.4,373.5z"/>
	</g>
</g>
<g>
	<g>
		<path d="M357.8,76.2v-1.9h11.4v1.9l-5.2,0.5h-1L357.8,76.2z M371.2,94.8c3.1,0,5-2.1,5-7.4V74.3h2.3v13.1c0,7.4-3.4,10.6-9.2,10.6
			c-5.2,0-8.9-2.6-8.9-9.3v-3.8c0-3.5,0-7-0.1-10.5h6.1c-0.1,3.4-0.1,7-0.1,10.5v2.7C366.3,92.9,367.9,94.8,371.2,94.8z M376.8,76.5
			l-3.7-0.3v-1.9h8.4v1.9l-3.6,0.3H376.8z"/>
		<path d="M385.1,97.3c0.1-1.6,0.1-5.2,0.1-7.4v-2c0-1.9,0-2.7-0.1-4.1l-2.1-0.3v-1.4l6.9-2.3l0.6,0.4l0.3,3.9V90
			c0,2.2,0,5.8,0.1,7.4H385.1z M392.5,95.7v1.6h-9.2v-1.6l3.2-0.7h2.7L392.5,95.7z M401.4,85.9V90c0,2.2,0,5.8,0.1,7.4h-5.8
			c0.1-1.6,0.1-5.1,0.1-7.4v-3.7c0-2.2-0.6-3-2-3c-1.2,0-2.9,0.9-4.3,2.6h-1.2v-2.3h2.4l-1.3,1c2.5-3.5,4.4-4.7,7-4.7
			C399.3,79.9,401.4,81.8,401.4,85.9z M399.7,95l3.4,0.7v1.6h-9.2v-1.6l3.2-0.7H399.7z"/>
		<path d="M406.8,97.3c0.1-1.6,0.1-5.2,0.1-7.4v-1.7c0-1.9,0-3-0.1-4.4l-2.2-0.3v-1.4l7.3-2.3l0.6,0.4l-0.1,5.1V90
			c0,2.2,0,5.8,0.1,7.4H406.8z M414.2,95.7v1.6h-9.3v-1.6l3.2-0.7h2.6L414.2,95.7z M406.6,74.5c0-1.6,1.3-2.8,3-2.8
			c1.6,0,3,1.2,3,2.8c0,1.6-1.3,2.8-3,2.8C407.9,77.3,406.6,76.1,406.6,74.5z"/>
		<path d="M425,95c0.6,0,1.2-0.3,1.9-0.8l0.9,0.8c-0.9,1.8-2.6,2.8-5.1,2.8c-3.2,0-5-1.4-5-4.9c0-1.2,0-2.2,0-3.5v-6.7h-2.3v-2.1
			l4.1-0.5l-2,1.4l2.2-6.1h3.6l-0.1,6.3v10.8C423.2,94.2,423.9,95,425,95z M426.9,80.4v2.4h-6.4v-2.4H426.9z"/>
		<path d="M436.8,94.2c1.6-1.6,3.2-3.1,4.6-4.6c3.3-3.4,5-5.6,5-8.8c0-2.7-1.4-4.3-3.6-4.3c-1,0-2,0.1-3.4,0.8l2.6-1.6l-0.6,3.3
			c-0.4,2.4-1.5,3-2.6,3c-1,0-1.8-0.5-2.3-1.4c0.1-3.9,3.8-5.9,8.1-5.9c5.1,0,7.2,2.6,7.2,6.1c0,3.4-2.5,6.2-8.4,10.1
			c-1.2,0.8-2.6,1.8-3.9,2.8l-0.5-0.6h13.3v4.3h-15.7V94.2z"/>
	</g>
</g>
<g>
	<g>
		<path d="M588.7,76.2v-1.9h11.4v1.9l-5.2,0.5h-1L588.7,76.2z M602.1,94.8c3.1,0,5-2.1,5-7.4V74.3h2.3v13.1c0,7.4-3.4,10.6-9.2,10.6
			c-5.2,0-8.9-2.6-8.9-9.3v-3.8c0-3.5,0-7-0.1-10.5h6.1c-0.1,3.4-0.1,7-0.1,10.5v2.7C597.1,92.9,598.8,94.8,602.1,94.8z M607.7,76.5
			l-3.7-0.3v-1.9h8.4v1.9l-3.6,0.3H607.7z"/>
		<path d="M616,97.3c0.1-1.6,0.1-5.2,0.1-7.4v-2c0-1.9,0-2.7-0.1-4.1l-2.1-0.3v-1.4l6.9-2.3l0.6,0.4l0.3,3.9V90c0,2.2,0,5.8,0.1,7.4
			H616z M623.4,95.7v1.6h-9.2v-1.6l3.2-0.7h2.7L623.4,95.7z M632.3,85.9V90c0,2.2,0,5.8,0.1,7.4h-5.8c0.1-1.6,0.1-5.1,0.1-7.4v-3.7
			c0-2.2-0.6-3-2-3c-1.2,0-2.9,0.9-4.3,2.6h-1.2v-2.3h2.4l-1.3,1c2.5-3.5,4.4-4.7,7-4.7C630.2,79.9,632.3,81.8,632.3,85.9z
			 M630.6,95l3.4,0.7v1.6h-9.2v-1.6L628,95H630.6z"/>
		<path d="M637.6,97.3c0.1-1.6,0.1-5.2,0.1-7.4v-1.7c0-1.9,0-3-0.1-4.4l-2.2-0.3v-1.4l7.3-2.3l0.6,0.4l-0.1,5.1V90
			c0,2.2,0,5.8,0.1,7.4H637.6z M645.1,95.7v1.6h-9.3v-1.6l3.2-0.7h2.6L645.1,95.7z M637.5,74.5c0-1.6,1.3-2.8,3-2.8
			c1.6,0,3,1.2,3,2.8c0,1.6-1.3,2.8-3,2.8C638.8,77.3,637.5,76.1,637.5,74.5z"/>
		<path d="M655.9,95c0.6,0,1.2-0.3,1.9-0.8l0.9,0.8c-0.9,1.8-2.6,2.8-5.1,2.8c-3.2,0-5-1.4-5-4.9c0-1.2,0-2.2,0-3.5v-6.7h-2.3v-2.1
			l4.1-0.5l-2,1.4l2.2-6.1h3.6l-0.1,6.3v10.8C654.1,94.2,654.8,95,655.9,95z M657.7,80.4v2.4h-6.4v-2.4H657.7z"/>
		<path d="M673.3,84.9c2.7,0,4.3-1.3,4.3-4.3c0-2.7-1.3-4-3.6-4c-0.6,0-1.5,0.2-2.6,0.5l2.1-1.3l-0.5,3.1c-0.3,1.8-1.3,2.4-2.6,2.4
			c-0.8,0-1.6-0.4-2-1.1c0-3.8,3.3-5.5,7-5.5c5.2,0,7.7,2.4,7.7,5.6c0,2.5-1.9,5-6.6,5.7v-0.6c5.4,0.5,7.3,2.6,7.3,6
			c0,3.7-3.2,6.4-8.7,6.4c-4.9,0-7.4-2.1-7.6-5.8c0.4-1.1,1.3-1.5,2.2-1.5c1.4,0,2.3,0.7,2.6,3.1l0.4,3.3l-1.7-1.4
			c0.9,0.4,1.5,0.5,2.4,0.5c3.1,0,4.7-1.5,4.7-4.7c0-2.9-1.6-4.5-4.5-4.5h-1.2v-2H673.3z"/>
	</g>
</g>
<line class="st15" x1="472.1" y1="131.6" x2="472.1" y2="92.8"/>
<line class="st15" x1="472.3" y1="92.8" x2="453.2" y2="93"/>
<g>
	<g>
		<path d="M860.2,76.2v-1.9h11.4v1.9l-5.2,0.5h-1L860.2,76.2z M873.7,94.8c3.1,0,5-2.1,5-7.4V74.3h2.3v13.1c0,7.4-3.4,10.6-9.2,10.6
			c-5.2,0-8.9-2.6-8.9-9.3v-3.8c0-3.5,0-7-0.1-10.5h6.1c-0.1,3.4-0.1,7-0.1,10.5v2.7C868.7,92.9,870.4,94.8,873.7,94.8z M879.2,76.5
			l-3.7-0.3v-1.9h8.4v1.9l-3.6,0.3H879.2z"/>
		<path d="M887.6,97.3c0.1-1.6,0.1-5.2,0.1-7.4v-2c0-1.9,0-2.7-0.1-4.1l-2.1-0.3v-1.4l6.9-2.3l0.6,0.4l0.3,3.9V90
			c0,2.2,0,5.8,0.1,7.4H887.6z M895,95.7v1.6h-9.2v-1.6L889,95h2.7L895,95.7z M903.8,85.9V90c0,2.2,0,5.8,0.1,7.4h-5.8
			c0.1-1.6,0.1-5.1,0.1-7.4v-3.7c0-2.2-0.6-3-2-3c-1.2,0-2.9,0.9-4.3,2.6h-1.2v-2.3h2.4l-1.3,1c2.5-3.5,4.4-4.7,7-4.7
			C901.8,79.9,903.8,81.8,903.8,85.9z M902.2,95l3.4,0.7v1.6h-9.2v-1.6l3.2-0.7H902.2z"/>
		<path d="M909.2,97.3c0.1-1.6,0.1-5.2,0.1-7.4v-1.7c0-1.9,0-3-0.1-4.4l-2.2-0.3v-1.4l7.3-2.3l0.6,0.4l-0.1,5.1V90
			c0,2.2,0,5.8,0.1,7.4H909.2z M916.7,95.7v1.6h-9.3v-1.6l3.2-0.7h2.6L916.7,95.7z M909.1,74.5c0-1.6,1.3-2.8,3-2.8
			c1.6,0,3,1.2,3,2.8c0,1.6-1.3,2.8-3,2.8C910.4,77.3,909.1,76.1,909.1,74.5z"/>
		<path d="M927.4,95c0.6,0,1.2-0.3,1.9-0.8l0.9,0.8c-0.9,1.8-2.6,2.8-5.1,2.8c-3.2,0-5-1.4-5-4.9c0-1.2,0-2.2,0-3.5v-6.7h-2.3v-2.1
			l4.1-0.5l-2,1.4l2.2-6.1h3.6l-0.1,6.3v10.8C925.6,94.2,926.4,95,927.4,95z M929.3,80.4v2.4h-6.4v-2.4H929.3z"/>
		<path d="M938.2,92.6v-3.2l10.2-14.3h3.9v22.1h-4.9v-19h1.2l-8.1,11.5l-0.5-1h15.6v3.9H938.2z"/>
	</g>
</g>
<line class="st15" x1="567.4" y1="144.1" x2="567.5" y2="91.3"/>
<line class="st15" x1="567.3" y1="91.3" x2="588.3" y2="91.3"/>
<line class="st15" x1="837.7" y1="161.5" x2="837.4" y2="89.2"/>
<line class="st15" x1="837.4" y1="90" x2="858.8" y2="90"/>
<path class="st16" d="M364.1,411.4c0-143.6,39.3-259.8,87.8-259.8"/>
<path class="st16" d="M347.6,665.3c0-255.5,70.7-462.3,158-462.3"/>
<path class="st16" d="M247.3,464.1c0-67.4,180.7-122,404-122"/>
<rect x="50.3" y="829.8" class="st17" width="16.2" height="15.6"/>
<g>
	<g>
		<path d="M77.4,834.4V832h13.1v2.4H77.4z M77.4,840.1v-2.4h13.1v2.4H77.4z"/>
		<path d="M102.3,837.8c0,3.1,1.5,4.8,3.8,4.8c1.3,0,2.3-0.6,3-1.5l0.9,0.8c-1,2.2-3,3.2-5.5,3.2c-3.7,0-6.7-2.4-6.7-6.9
			c0-4.4,3.3-7,7.3-7c2.9,0,4.8,1.8,5,3.9c-0.3,1-0.9,1.4-1.8,1.4c-1.1,0-1.9-0.7-2.1-2.6l-0.2-1.9l2,1.1c-0.8-0.4-1.5-0.6-2.4-0.6
			C104,832.7,102.3,834.1,102.3,837.8z"/>
		<path d="M124.2,837c0,0.6,0,1-0.1,1.5h-10.6V837h5.1c1.3,0,1.6-0.5,1.6-1.7c0-1.8-0.8-2.7-1.8-2.7c-1.1,0-2.1,1.2-2.1,5.1
			c0,3.3,1.6,4.8,3.6,4.8c1.5,0,2.5-0.6,3.3-1.4l0.9,0.9c-1.1,2.1-3,3.2-5.7,3.2c-3.9,0-6.7-2.6-6.7-6.9c0-4.5,3.5-6.9,7-6.9
			C122.2,831.3,124.2,833.7,124.2,837z"/>
		<path d="M127.1,844.8c0.1-1.2,0.1-4,0.1-5.7v-1.6c0-1.5,0-2-0.1-3.1l-1.7-0.2v-1.1l5.3-1.8l0.5,0.3l0.2,3v4.5c0,1.7,0,4.5,0.1,5.7
			H127.1z M132.8,843.5v1.3h-7.1v-1.3l2.5-0.5h2.1L132.8,843.5z M139.6,836v3.1c0,1.7,0,4.5,0.1,5.7h-4.5c0.1-1.2,0.1-3.9,0.1-5.7
			v-2.8c0-1.7-0.4-2.3-1.5-2.3c-1,0-2.3,0.7-3.3,2h-0.9v-1.7h1.8l-1,0.8c1.9-2.7,3.4-3.6,5.4-3.6C138.1,831.3,139.6,832.8,139.6,836
			z M138.4,843l2.6,0.5v1.3h-7.1v-1.3l2.4-0.5H138.4z"/>
		<path d="M149.3,843c0.5,0,0.9-0.2,1.5-0.6l0.7,0.7c-0.7,1.4-2,2.2-3.9,2.2c-2.4,0-3.9-1.1-3.9-3.8c0-0.9,0-1.7,0-2.7v-5.1h-1.7
			V832l3.2-0.4l-1.5,1.1l1.7-4.7h2.8l-0.1,4.9v8.3C147.9,842.4,148.5,843,149.3,843z M150.8,831.7v1.9h-5v-1.9H150.8z"/>
		<path d="M153.5,839.1v-1.6c0-1.5,0-2-0.1-3.1l-1.7-0.2v-1.1l5.3-1.8l0.5,0.3l0.2,3.3v4.2c0,1.7,0,4.5,0.1,5.7h-4.5
			C153.5,843.6,153.5,840.8,153.5,839.1z M152,843.5l2.6-0.5h2.8l2.6,0.5v1.3h-8V843.5z M155.8,835.5h2l-0.4,0.7c0.5-3.3,2.4-5,4-5
			c1.2,0,2.1,0.7,2.3,2c-0.1,1.4-0.8,2.2-1.9,2.2c-0.8,0-1.4-0.4-2.1-1.3l-0.8-1l1.1,0.4c-1,0.7-1.9,2.1-2.3,3.7l-2-0.2V835.5z"/>
		<path d="M164.6,838.2c0-4.1,3-6.9,6.9-6.9c3.8,0,6.9,2.7,6.9,6.9s-2.7,7-6.9,7C167.2,845.2,164.6,842.3,164.6,838.2z M173.7,838.2
			c0-3.8-0.8-5.5-2.3-5.5c-1.5,0-2.3,1.7-2.3,5.5c0,3.9,0.8,5.5,2.3,5.5C173,843.8,173.7,842.1,173.7,838.2z"/>
		<path d="M181.3,844.8c0.1-1.2,0.1-4,0.1-5.7v-1.3c0-1.5,0-2.3-0.1-3.4l-1.7-0.2v-1.1l5.7-1.8l0.5,0.3l-0.1,3.9v3.6
			c0,1.7,0,4.5,0.1,5.7H181.3z M187.1,843.5v1.3h-7.2v-1.3l2.5-0.5h2L187.1,843.5z M181.2,827.2c0-1.3,1-2.1,2.3-2.1
			s2.3,0.9,2.3,2.1c0,1.3-1,2.1-2.3,2.1S181.2,828.4,181.2,827.2z"/>
		<path d="M195.8,842.8c1.3,0,2.2-1,3.1-2.3l0.3,0.4c-1.3,2.9-3,4.2-5.4,4.2c-3.1,0-5.4-2.4-5.4-6.8c0-4.4,2.9-7.1,5.9-7.1
			c2.3,0,3.5,1.3,4.7,3.7l-0.3,0.5c-1.1-1.3-1.8-1.9-2.9-1.9c-1.6,0-2.9,1.5-2.9,4.7C193,841.3,194.1,842.8,195.8,842.8z
			 M203.1,843.5v1.3l-5.3,0.3l-0.3-2.4v-9l0.2-0.3v-5.6l-1.9-0.3v-1.1l5.7-1.2l0.4,0.3l-0.1,3.8v15.6l-1.8-2L203.1,843.5z"/>
		<path d="M215.7,825.2l0.4,0.3l-0.1,3.8v9.9c0,1.9,0,3.8,0.1,5.7h-4.5c0.1-1.9,0.1-3.8,0.1-5.7v-11.3l-1.7-0.3v-1.1L215.7,825.2z
			 M217.5,843.5v1.3h-7.4v-1.3l2.6-0.5h2L217.5,843.5z"/>
		<path d="M218.9,838.2c0-4.1,3-6.9,6.9-6.9c3.8,0,6.9,2.7,6.9,6.9s-2.7,7-6.9,7C221.6,845.2,218.9,842.3,218.9,838.2z M228.1,838.2
			c0-3.8-0.8-5.5-2.3-5.5c-1.5,0-2.3,1.7-2.3,5.5c0,3.9,0.8,5.5,2.3,5.5C227.3,843.8,228.1,842.1,228.1,838.2z"/>
		<path d="M238.7,837.8c0,3.1,1.5,4.8,3.8,4.8c1.3,0,2.3-0.6,3-1.5l0.9,0.8c-1,2.2-3,3.2-5.5,3.2c-3.7,0-6.7-2.4-6.7-6.9
			c0-4.4,3.3-7,7.3-7c2.9,0,4.8,1.8,5,3.9c-0.3,1-0.9,1.4-1.8,1.4c-1.1,0-1.9-0.7-2.1-2.6l-0.2-1.9l2,1.1c-0.8-0.4-1.5-0.6-2.4-0.6
			C240.4,832.7,238.7,834.1,238.7,837.8z"/>
		<path d="M253.3,837.2c1.1-0.3,3-0.8,4.3-1.1v1.1c-1.3,0.3-2.7,0.7-3.5,1.1c-1.2,0.5-2,1.4-2,2.7c0,1.4,0.7,2,1.6,2
			c0.5,0,0.9-0.2,1.8-0.8l1.1-0.8l0.3,0.4l-1.1,1.2c-1.3,1.4-2.1,2.2-4.1,2.2c-2.1,0-3.5-1.2-3.5-3.5
			C248.1,839.8,249.2,838.5,253.3,837.2z M255.4,842.6v-6.8c0-2.4-0.5-3.1-2.2-3.1c-0.7,0-1.4,0.1-2.5,0.4l1.9-1.1l-0.2,1.9
			c-0.1,1.8-0.9,2.5-2,2.5c-1,0-1.6-0.5-1.8-1.4c0.1-2.2,2.3-3.8,6.2-3.8c3.5,0,4.8,1.5,4.8,5.1v6.1c0,0.5,0.2,0.8,0.6,0.8
			c0.3,0,0.5-0.1,0.8-0.6l0.7,0.5c-0.6,1.5-1.6,2-3.2,2C256.6,845.2,255.6,844.2,255.4,842.6z"/>
		<path d="M269.3,843c0.5,0,0.9-0.2,1.5-0.6l0.7,0.7c-0.7,1.4-2,2.2-3.9,2.2c-2.4,0-3.9-1.1-3.9-3.8c0-0.9,0-1.7,0-2.7v-5.1h-1.7
			V832l3.2-0.4l-1.5,1.1l1.7-4.7h2.8l-0.1,4.9v8.3C268,842.4,268.5,843,269.3,843z M270.8,831.7v1.9h-5v-1.9H270.8z"/>
		<path d="M273.5,844.8c0.1-1.2,0.1-4,0.1-5.7v-1.3c0-1.5,0-2.3-0.1-3.4l-1.7-0.2v-1.1l5.7-1.8l0.5,0.3l-0.1,3.9v3.6
			c0,1.7,0,4.5,0.1,5.7H273.5z M279.3,843.5v1.3h-7.2v-1.3l2.5-0.5h2L279.3,843.5z M273.4,827.2c0-1.3,1-2.1,2.3-2.1
			s2.3,0.9,2.3,2.1c0,1.3-1,2.1-2.3,2.1S273.4,828.4,273.4,827.2z"/>
		<path d="M280.6,838.2c0-4.1,3-6.9,6.9-6.9c3.8,0,6.9,2.7,6.9,6.9s-2.7,7-6.9,7C283.2,845.2,280.6,842.3,280.6,838.2z M289.7,838.2
			c0-3.8-0.8-5.5-2.3-5.5c-1.5,0-2.3,1.7-2.3,5.5c0,3.9,0.8,5.5,2.3,5.5C289,843.8,289.7,842.1,289.7,838.2z"/>
		<path d="M297.3,844.8c0.1-1.2,0.1-4,0.1-5.7v-1.6c0-1.5,0-2-0.1-3.1l-1.7-0.2v-1.1l5.3-1.8l0.5,0.3l0.2,3v4.5c0,1.7,0,4.5,0.1,5.7
			H297.3z M303,843.5v1.3h-7.1v-1.3l2.5-0.5h2.1L303,843.5z M309.8,836v3.1c0,1.7,0,4.5,0.1,5.7h-4.5c0.1-1.2,0.1-3.9,0.1-5.7v-2.8
			c0-1.7-0.4-2.3-1.5-2.3c-1,0-2.3,0.7-3.3,2h-0.9v-1.7h1.8l-1,0.8c1.9-2.7,3.4-3.6,5.4-3.6C308.2,831.3,309.8,832.8,309.8,836z
			 M308.5,843l2.6,0.5v1.3H304v-1.3l2.4-0.5H308.5z"/>
		<path d="M312.5,843.9l0.1-3.3h2.2l0.6,3.6l-1.5-0.5v-1.1c1.2,0.7,2.1,1.1,3.4,1.1c1.6,0,2.4-0.5,2.4-1.6c0-0.8-0.5-1.4-2.3-1.9
			l-1.5-0.4c-2.1-0.6-3.3-2-3.3-4c0-2.5,2-4.4,5.6-4.4c1.6,0,2.9,0.4,4.3,1.1l-0.2,3h-2.2l-0.8-3.3l1.5,0.6v1
			c-1-0.6-1.5-0.9-2.8-0.9c-1.2,0-2,0.5-2,1.5c0,0.7,0.4,1.3,2.3,1.8l1.3,0.4c2.6,0.8,3.6,2.2,3.6,4.2c0,2.9-2.3,4.5-6.1,4.5
			C315.5,845.2,314,844.8,312.5,843.9z"/>
	</g>
</g>
<polygon class="st9" points="67.6,869.6 61.8,877 52.5,875.7 49,867 54.8,859.6 64.1,860.9 "/>
<g>
	<g>
		<path d="M75.8,865.9v-2.4h13.1v2.4H75.8z M75.8,871.6v-2.4h13.1v2.4H75.8z"/>
		<path d="M97.7,876.2c0.1-1.2,0.1-4,0.1-5.7v-1.3c0-1.5,0-2.3-0.1-3.4l-1.7-0.2v-1.1l5.7-1.8l0.5,0.3L102,867v3.6
			c0,1.7,0,4.5,0.1,5.7H97.7z M103.4,875v1.3h-7.2V875l2.5-0.5h2L103.4,875z M97.6,858.6c0-1.3,1-2.1,2.3-2.1s2.3,0.9,2.3,2.1
			c0,1.3-1,2.1-2.3,2.1S97.6,859.9,97.6,858.6z"/>
		<path d="M106.2,876.2c0.1-1.2,0.1-4,0.1-5.7V869c0-1.5,0-2-0.1-3.1l-1.7-0.2v-1.1l5.3-1.8l0.5,0.3l0.2,3v4.5c0,1.7,0,4.5,0.1,5.7
			H106.2z M111.9,875v1.3h-7.1V875l2.5-0.5h2.1L111.9,875z M118.6,867.4v3.1c0,1.7,0,4.5,0.1,5.7h-4.4c0.1-1.2,0.1-3.9,0.1-5.7V868
			c0-1.9-0.4-2.6-1.6-2.6c-1.2,0-2.4,1-3.2,2h-1v-1.7h1.7l-0.8,0.8c1.6-2.4,3.2-3.6,5.2-3.6C117.2,862.8,118.6,864.3,118.6,867.4z
			 M117.4,874.5l2.5,0.5v1.3h-7V875l2.4-0.5H117.4z M126.5,867.6v3c0,1.7,0,4.5,0.1,5.7h-4.4c0.1-1.2,0.1-3.9,0.1-5.7V868
			c0-2-0.4-2.6-1.5-2.6c-1.2,0-2.3,0.8-3.3,2h-1v-1.8h1.9l-1.1,0.8c1.9-2.8,3.4-3.6,5.3-3.6C125.3,862.8,126.5,864.4,126.5,867.6z
			 M125.4,874.5l2.5,0.5v1.3H121V875l2.2-0.5H125.4z"/>
		<path d="M130.8,869c0-1.5,0-2-0.1-3.1l-1.7-0.2v-1.1l5.3-1.8l0.4,0.2l0.2,2.1l0.1,0.4v8.5l-0.1,0.3v1.9c0,1.7,0,3.7,0.1,6.1h-4.4
			c0.1-2.4,0.1-4.3,0.1-6.1V869z M136.8,881.1v1.3h-7.6v-1.3l2.6-0.5h2.6L136.8,881.1z M137,865.1c-1.4,0-2.6,1.5-3.5,2.4l-0.2-0.4
			c1.5-2.9,3.3-4.3,5.7-4.3c2.9,0,5.3,2.4,5.3,6.9c0,4.4-2.7,7-5.8,7c-2.4,0-3.8-1.4-5-4.2l0.2-0.5c1.1,1.5,1.9,2.4,3.2,2.4
			c1.6,0,2.8-1.5,2.8-4.6C139.7,866.5,138.6,865.1,137,865.1z"/>
		<path d="M147.3,870.6V869c0-1.5,0-2-0.1-3.1l-1.7-0.2v-1.1l5.3-1.8l0.5,0.3l0.2,3.3v4.2c0,1.7,0,4.5,0.1,5.7h-4.5
			C147.2,875,147.3,872.3,147.3,870.6z M145.7,875l2.6-0.5h2.8l2.6,0.5v1.3h-8V875z M149.6,867h2l-0.4,0.7c0.5-3.3,2.4-5,4-5
			c1.2,0,2.1,0.7,2.3,2c-0.1,1.4-0.8,2.2-1.9,2.2c-0.8,0-1.4-0.4-2.1-1.3l-0.8-1l1.1,0.4c-1,0.7-1.9,2.1-2.3,3.7l-2-0.2V867z"/>
		<path d="M170.9,868.5c0,0.6,0,1-0.1,1.5h-10.6v-1.4h5.1c1.3,0,1.6-0.5,1.6-1.7c0-1.8-0.8-2.7-1.8-2.7c-1.1,0-2.1,1.2-2.1,5.1
			c0,3.3,1.6,4.8,3.6,4.8c1.5,0,2.5-0.6,3.3-1.4l0.9,0.9c-1.1,2.1-3,3.2-5.7,3.2c-3.9,0-6.7-2.6-6.7-6.9c0-4.5,3.5-6.9,7-6.9
			C168.9,862.8,170.9,865.2,170.9,868.5z"/>
		<path d="M176.9,869.3c0,3.1,1.5,4.8,3.8,4.8c1.3,0,2.3-0.6,3-1.5l0.9,0.8c-1,2.2-3,3.2-5.5,3.2c-3.7,0-6.7-2.4-6.7-6.9
			c0-4.4,3.3-7,7.3-7c2.9,0,4.8,1.8,5,3.9c-0.3,1-0.9,1.4-1.8,1.4c-1.1,0-1.9-0.7-2.1-2.6l-0.2-1.9l2,1.1c-0.8-0.4-1.5-0.6-2.4-0.6
			C178.6,864.2,176.9,865.6,176.9,869.3z"/>
		<path d="M187.7,876.2c0.1-1.2,0.1-4,0.1-5.7v-1.3c0-1.5,0-2.3-0.1-3.4l-1.7-0.2v-1.1l5.7-1.8l0.5,0.3l-0.1,3.9v3.6
			c0,1.7,0,4.5,0.1,5.7H187.7z M193.5,875v1.3h-7.2V875l2.5-0.5h2L193.5,875z M187.6,858.6c0-1.3,1-2.1,2.3-2.1s2.3,0.9,2.3,2.1
			c0,1.3-1,2.1-2.3,2.1S187.6,859.9,187.6,858.6z"/>
		<path d="M194.9,875.4l0.1-3.3h2.2l0.6,3.6l-1.5-0.5v-1.1c1.2,0.7,2.1,1.1,3.4,1.1c1.6,0,2.4-0.5,2.4-1.6c0-0.8-0.5-1.4-2.3-1.9
			l-1.5-0.4c-2.1-0.6-3.3-2-3.3-4c0-2.5,2-4.4,5.6-4.4c1.6,0,2.9,0.4,4.3,1.1l-0.2,3h-2.2l-0.8-3.3l1.5,0.6v1
			c-1-0.6-1.5-0.9-2.8-0.9c-1.2,0-2,0.5-2,1.5c0,0.7,0.4,1.3,2.3,1.8l1.3,0.4c2.6,0.8,3.6,2.2,3.6,4.2c0,2.9-2.3,4.5-6.1,4.5
			C197.8,876.7,196.3,876.2,194.9,875.4z"/>
		<path d="M219.6,868.5c0,0.6,0,1-0.1,1.5h-10.6v-1.4h5.1c1.3,0,1.6-0.5,1.6-1.7c0-1.8-0.8-2.7-1.8-2.7c-1.1,0-2.1,1.2-2.1,5.1
			c0,3.3,1.6,4.8,3.6,4.8c1.5,0,2.5-0.6,3.3-1.4l0.9,0.9c-1.1,2.1-3,3.2-5.7,3.2c-3.9,0-6.7-2.6-6.7-6.9c0-4.5,3.5-6.9,7-6.9
			C217.6,862.8,219.6,865.2,219.6,868.5z"/>
		<path d="M226.6,856.6l0.4,0.3l-0.1,3.8v9.9c0,1.9,0,3.8,0.1,5.7h-4.5c0.1-1.9,0.1-3.8,0.1-5.7v-11.3L221,859v-1.1L226.6,856.6z
			 M228.5,875v1.3h-7.4V875l2.6-0.5h2L228.5,875z"/>
		<path d="M231.5,864.8l-2.5-0.4v-1.2h7.7v1.2l-2.4,0.4H231.5z M229.1,880.6c0.2-1.2,1.2-1.7,2.2-1.7c0.7,0,1.6,0.2,2.3,1.3l0.8,1.2
			l-1,0.5l-0.8-0.5c1.3-0.8,2.4-2.2,3-4.1l1.4-4.1l3.5-10h1.8l-5.4,14.2c-1.3,3.5-2.5,5.3-5.1,5.3
			C230.5,882.6,229.2,881.8,229.1,880.6z M236,877.9l-6.3-14.7h4.7l3.6,10L236,877.9z M240.6,864.8l-2.3-0.4v-1.2h5.1v1.2l-2.3,0.4
			H240.6z"/>
		<path d="M260,878.7c0-0.8-0.5-1.5-2-1.5h-2.8c-1.2,0-2.2-0.1-2.9-0.4v-0.2c-1.4-0.4-1.9-1.3-1.9-2.3c0-1.4,1-2.7,2.7-4l0.7,0.4
			c-0.4,0.5-0.6,1-0.6,1.6c0,0.6,0.4,1,1.6,1h3.2c4.1,0,5.6,1.6,5.6,3.9c0,2.8-2.7,5-7.9,5c-4.5,0-5.8-1.5-5.8-3.2
			c0-1.3,1-2.4,3-3.1l0.4,0.2c-0.6,0.8-0.8,1.3-0.8,2.1c0,1.6,1.1,2.3,3.6,2.3C258.6,880.8,260,879.9,260,878.7z M256,862.8
			c3.8,0,5.6,1.8,5.6,4.4c0,2.4-1.8,4.3-5.6,4.3c-3.9,0-5.6-1.8-5.6-4.3C250.3,864.6,252.1,862.8,256,862.8z M254.1,867.1
			c0,1.9,0.5,3.1,1.8,3.1c1.3,0,1.9-1.2,1.9-3.1c0-1.9-0.6-3-1.8-3C254.8,864.1,254.1,865.2,254.1,867.1z M263.3,862.7l0.4,0.3v2.1
			h-3.9v-0.9L263.3,862.7z"/>
		<path d="M277.3,868.5c0,0.6,0,1-0.1,1.5h-10.6v-1.4h5.1c1.3,0,1.6-0.5,1.6-1.7c0-1.8-0.8-2.7-1.8-2.7c-1.1,0-2.1,1.2-2.1,5.1
			c0,3.3,1.6,4.8,3.6,4.8c1.5,0,2.5-0.6,3.3-1.4l0.9,0.9c-1.1,2.1-3,3.2-5.7,3.2c-3.9,0-6.7-2.6-6.7-6.9c0-4.5,3.5-6.9,7-6.9
			C275.2,862.8,277.3,865.2,277.3,868.5z"/>
		<path d="M278.8,869.7c0-4.1,3-6.9,6.9-6.9c3.8,0,6.9,2.7,6.9,6.9s-2.7,7-6.9,7C281.4,876.7,278.8,873.8,278.8,869.7z M287.9,869.7
			c0-3.8-0.8-5.5-2.3-5.5c-1.5,0-2.3,1.7-2.3,5.5c0,3.9,0.8,5.5,2.3,5.5C287.2,875.2,287.9,873.6,287.9,869.7z"/>
		<path d="M294.4,868.2h7v2.4h-7V868.2z"/>
		<path d="M307.7,869.3c0,3.1,1.5,4.8,3.8,4.8c1.3,0,2.3-0.6,3-1.5l0.9,0.8c-1,2.2-3,3.2-5.5,3.2c-3.7,0-6.7-2.4-6.7-6.9
			c0-4.4,3.3-7,7.3-7c2.9,0,4.8,1.8,5,3.9c-0.3,1-0.9,1.4-1.8,1.4c-1.1,0-1.9-0.7-2.1-2.6l-0.2-1.9l2,1.1c-0.8-0.4-1.5-0.6-2.4-0.6
			C309.4,864.2,307.7,865.6,307.7,869.3z"/>
		<path d="M317.1,869.7c0-4.1,3-6.9,6.9-6.9c3.8,0,6.9,2.7,6.9,6.9s-2.7,7-6.9,7C319.7,876.7,317.1,873.8,317.1,869.7z M326.2,869.7
			c0-3.8-0.8-5.5-2.3-5.5c-1.5,0-2.3,1.7-2.3,5.5c0,3.9,0.8,5.5,2.3,5.5C325.4,875.2,326.2,873.6,326.2,869.7z"/>
		<path d="M339.7,874.3c1.3,0,2.2-1,3.1-2.3l0.3,0.4c-1.3,2.9-3,4.2-5.4,4.2c-3.1,0-5.4-2.4-5.4-6.8c0-4.4,2.9-7.1,5.9-7.1
			c2.3,0,3.5,1.3,4.7,3.7l-0.3,0.5c-1.1-1.3-1.8-1.9-2.9-1.9c-1.6,0-2.9,1.5-2.9,4.7C336.9,872.8,338,874.3,339.7,874.3z M347,875
			v1.3l-5.3,0.3l-0.3-2.4v-9l0.2-0.3v-5.6l-1.9-0.3v-1.1l5.7-1.2l0.4,0.3l-0.1,3.8v15.6l-1.8-2L347,875z"/>
		<path d="M360.9,868.5c0,0.6,0,1-0.1,1.5h-10.6v-1.4h5.1c1.3,0,1.6-0.5,1.6-1.7c0-1.8-0.8-2.7-1.8-2.7c-1.1,0-2.1,1.2-2.1,5.1
			c0,3.3,1.6,4.8,3.6,4.8c1.5,0,2.5-0.6,3.3-1.4l0.9,0.9c-1.1,2.1-3,3.2-5.7,3.2c-3.9,0-6.7-2.6-6.7-6.9c0-4.5,3.5-6.9,7-6.9
			C358.9,862.8,360.9,865.2,360.9,868.5z"/>
		<path d="M369.8,874.3c1.3,0,2.2-1,3.1-2.3l0.3,0.4c-1.3,2.9-3,4.2-5.4,4.2c-3.1,0-5.4-2.4-5.4-6.8c0-4.4,2.9-7.1,5.9-7.1
			c2.3,0,3.5,1.3,4.7,3.7l-0.3,0.5c-1.1-1.3-1.8-1.9-2.9-1.9c-1.6,0-2.9,1.5-2.9,4.7C367,872.8,368.2,874.3,369.8,874.3z M377.1,875
			v1.3l-5.3,0.3l-0.3-2.4v-9l0.2-0.3v-5.6l-1.9-0.3v-1.1l5.7-1.2l0.4,0.3l-0.1,3.8v15.6l-1.8-2L377.1,875z"/>
		<path d="M396.8,868.5c0,0.6,0,1-0.1,1.5h-10.6v-1.4h5.1c1.3,0,1.6-0.5,1.6-1.7c0-1.8-0.8-2.7-1.8-2.7c-1.1,0-2.1,1.2-2.1,5.1
			c0,3.3,1.6,4.8,3.6,4.8c1.5,0,2.5-0.6,3.3-1.4l0.9,0.9c-1.1,2.1-3,3.2-5.7,3.2c-3.9,0-6.7-2.6-6.7-6.9c0-4.5,3.5-6.9,7-6.9
			C394.8,862.8,396.8,865.2,396.8,868.5z"/>
		<path d="M399.8,864.9l-2.5-0.5v-1.2h7.7v1.2l-2.5,0.5H399.8z M402.7,863.2l3.5,9.6l-1.8,2.9l4.2-12.5h1.9l-5,13.1h-2.1l-5.5-13.1
			H402.7z M408.8,864.8l-2.3-0.4v-1.2h5.1v1.2l-2.2,0.4H408.8z"/>
		<path d="M425.1,868.5c0,0.6,0,1-0.1,1.5h-10.6v-1.4h5.1c1.3,0,1.6-0.5,1.6-1.7c0-1.8-0.8-2.7-1.8-2.7c-1.1,0-2.1,1.2-2.1,5.1
			c0,3.3,1.6,4.8,3.6,4.8c1.5,0,2.5-0.6,3.3-1.4l0.9,0.9c-1.1,2.1-3,3.2-5.7,3.2c-3.9,0-6.7-2.6-6.7-6.9c0-4.5,3.5-6.9,7-6.9
			C423.1,862.8,425.1,865.2,425.1,868.5z"/>
		<path d="M428,876.2c0.1-1.2,0.1-4,0.1-5.7V869c0-1.5,0-2-0.1-3.1l-1.7-0.2v-1.1l5.3-1.8l0.5,0.3l0.2,3v4.5c0,1.7,0,4.5,0.1,5.7
			H428z M433.7,875v1.3h-7.1V875l2.5-0.5h2.1L433.7,875z M440.5,867.4v3.1c0,1.7,0,4.5,0.1,5.7h-4.5c0.1-1.2,0.1-3.9,0.1-5.7v-2.8
			c0-1.7-0.4-2.3-1.5-2.3c-1,0-2.3,0.7-3.3,2h-0.9v-1.7h1.8l-1,0.8c1.9-2.7,3.4-3.6,5.4-3.6C439,862.8,440.5,864.3,440.5,867.4z
			 M439.3,874.5l2.6,0.5v1.3h-7.1V875l2.4-0.5H439.3z"/>
		<path d="M450.2,874.5c0.5,0,0.9-0.2,1.5-0.6l0.7,0.7c-0.7,1.4-2,2.2-3.9,2.2c-2.4,0-3.9-1.1-3.9-3.8c0-0.9,0-1.7,0-2.7v-5.1h-1.7
			v-1.6l3.2-0.4l-1.5,1.1l1.7-4.7h2.8l-0.1,4.9v8.3C448.8,873.9,449.4,874.5,450.2,874.5z M451.6,863.2v1.9h-5v-1.9H451.6z"/>
		<path d="M453,875.4l0.1-3.3h2.2l0.6,3.6l-1.5-0.5v-1.1c1.2,0.7,2.1,1.1,3.4,1.1c1.6,0,2.4-0.5,2.4-1.6c0-0.8-0.5-1.4-2.3-1.9
			l-1.5-0.4c-2.1-0.6-3.3-2-3.3-4c0-2.5,2-4.4,5.6-4.4c1.6,0,2.9,0.4,4.3,1.1l-0.2,3h-2.2l-0.8-3.3l1.5,0.6v1
			c-1-0.6-1.5-0.9-2.8-0.9c-1.2,0-2,0.5-2,1.5c0,0.7,0.4,1.3,2.3,1.8l1.3,0.4c2.6,0.8,3.6,2.2,3.6,4.2c0,2.9-2.3,4.5-6.1,4.5
			C455.9,876.7,454.4,876.2,453,875.4z"/>
	</g>
</g>
<polygon class="st12" points="67.4,901.8 61.6,909.2 52.3,907.9 48.8,899.1 54.6,891.8 63.9,893.1 "/>
<g>
	<g>
		<path d="M75.6,898.1v-2.4h13.1v2.4H75.6z M75.6,903.7v-2.4h13.1v2.4H75.6z"/>
		<path d="M97.6,901.2c0-1.5,0-2-0.1-3.1l-1.7-0.2v-1.1l5.3-1.8l0.4,0.2l0.2,2.1l0.1,0.4v8.5l-0.1,0.3v1.9c0,1.7,0,3.7,0.1,6.1h-4.4
			c0.1-2.4,0.1-4.3,0.1-6.1V901.2z M103.6,913.3v1.3h-7.6v-1.3l2.6-0.5h2.6L103.6,913.3z M103.7,897.3c-1.4,0-2.6,1.5-3.5,2.4
			l-0.2-0.4c1.5-2.9,3.3-4.3,5.7-4.3c2.9,0,5.3,2.4,5.3,6.9c0,4.4-2.7,7-5.8,7c-2.4,0-3.8-1.4-5-4.2l0.2-0.5
			c1.1,1.5,1.9,2.4,3.2,2.4c1.6,0,2.8-1.5,2.8-4.6C106.4,898.7,105.3,897.3,103.7,897.3z"/>
		<path d="M114,902.7v-1.6c0-1.5,0-2-0.1-3.1l-1.7-0.2v-1.1l5.3-1.8l0.5,0.3l0.2,3.3v4.2c0,1.7,0,4.5,0.1,5.7h-4.5
			C114,907.2,114,904.4,114,902.7z M112.5,907.2l2.6-0.5h2.8l2.6,0.5v1.3h-8V907.2z M116.3,899.2h2l-0.4,0.7c0.5-3.3,2.4-5,4-5
			c1.2,0,2.1,0.7,2.3,2c-0.1,1.4-0.8,2.2-1.9,2.2c-0.8,0-1.4-0.4-2.1-1.3l-0.8-1l1.1,0.4c-1,0.7-1.9,2.1-2.3,3.7l-2-0.2V899.2z"/>
		<path d="M137.6,900.7c0,0.6,0,1-0.1,1.5h-10.6v-1.4h5.1c1.3,0,1.6-0.5,1.6-1.7c0-1.8-0.8-2.7-1.8-2.7c-1.1,0-2.1,1.2-2.1,5.1
			c0,3.3,1.6,4.8,3.6,4.8c1.5,0,2.5-0.6,3.3-1.4l0.9,0.9c-1.1,2.1-3,3.2-5.7,3.2c-3.9,0-6.7-2.6-6.7-6.9c0-4.5,3.5-6.9,7-6.9
			C135.6,895,137.6,897.4,137.6,900.7z"/>
		<path d="M143.7,901.4c0,3.1,1.5,4.8,3.8,4.8c1.3,0,2.3-0.6,3-1.5l0.9,0.8c-1,2.2-3,3.2-5.5,3.2c-3.7,0-6.7-2.4-6.7-6.9
			c0-4.4,3.3-7,7.3-7c2.9,0,4.8,1.8,5,3.9c-0.3,1-0.9,1.4-1.8,1.4c-1.1,0-1.9-0.7-2.1-2.6l-0.2-1.9l2,1.1c-0.8-0.4-1.5-0.6-2.4-0.6
			C145.4,896.3,143.7,897.8,143.7,901.4z"/>
		<path d="M154.5,908.4c0.1-1.2,0.1-4,0.1-5.7v-1.3c0-1.5,0-2.3-0.1-3.4l-1.7-0.2v-1.1l5.7-1.8l0.5,0.3l-0.1,3.9v3.6
			c0,1.7,0,4.5,0.1,5.7H154.5z M160.2,907.2v1.3h-7.2v-1.3l2.5-0.5h2L160.2,907.2z M154.4,890.8c0-1.3,1-2.1,2.3-2.1
			s2.3,0.9,2.3,2.1c0,1.3-1,2.1-2.3,2.1S154.4,892.1,154.4,890.8z"/>
		<path d="M161.6,907.6l0.1-3.3h2.2l0.6,3.6l-1.5-0.5v-1.1c1.2,0.7,2.1,1.1,3.4,1.1c1.6,0,2.4-0.5,2.4-1.6c0-0.8-0.5-1.4-2.3-1.9
			l-1.5-0.4c-2.1-0.6-3.3-2-3.3-4c0-2.5,2-4.4,5.6-4.4c1.6,0,2.9,0.4,4.3,1.1l-0.2,3h-2.2l-0.8-3.3l1.5,0.6v1
			c-1-0.6-1.5-0.9-2.8-0.9c-1.2,0-2,0.5-2,1.5c0,0.7,0.4,1.3,2.3,1.8l1.3,0.4c2.6,0.8,3.6,2.2,3.6,4.2c0,2.9-2.3,4.5-6.1,4.5
			C164.5,908.8,163,908.4,161.6,907.6z"/>
		<path d="M186.4,900.7c0,0.6,0,1-0.1,1.5h-10.6v-1.4h5.1c1.3,0,1.6-0.5,1.6-1.7c0-1.8-0.8-2.7-1.8-2.7c-1.1,0-2.1,1.2-2.1,5.1
			c0,3.3,1.6,4.8,3.6,4.8c1.5,0,2.5-0.6,3.3-1.4l0.9,0.9c-1.1,2.1-3,3.2-5.7,3.2c-3.9,0-6.7-2.6-6.7-6.9c0-4.5,3.5-6.9,7-6.9
			C184.4,895,186.4,897.4,186.4,900.7z"/>
		<path d="M193.4,888.8l0.4,0.3l-0.1,3.8v9.9c0,1.9,0,3.8,0.1,5.7h-4.5c0.1-1.9,0.1-3.8,0.1-5.7v-11.3l-1.7-0.3V890L193.4,888.8z
			 M195.2,907.2v1.3h-7.4v-1.3l2.6-0.5h2L195.2,907.2z"/>
		<path d="M198.3,897l-2.5-0.4v-1.2h7.7v1.2l-2.4,0.4H198.3z M195.9,912.8c0.2-1.2,1.2-1.7,2.2-1.7c0.7,0,1.6,0.2,2.3,1.3l0.8,1.2
			l-1,0.5l-0.8-0.5c1.3-0.8,2.4-2.2,3-4.1l1.4-4.1l3.5-10h1.8l-5.4,14.2c-1.3,3.5-2.5,5.3-5.1,5.3
			C197.2,914.8,196,913.9,195.9,912.8z M202.8,910.1l-6.3-14.7h4.7l3.6,10L202.8,910.1z M207.4,897l-2.3-0.4v-1.2h5.1v1.2l-2.3,0.4
			H207.4z"/>
		<path d="M226.8,910.9c0-0.8-0.5-1.5-2-1.5H222c-1.2,0-2.2-0.1-2.9-0.4v-0.2c-1.4-0.4-1.9-1.3-1.9-2.3c0-1.4,1-2.7,2.7-4l0.7,0.4
			c-0.4,0.5-0.6,1-0.6,1.6c0,0.6,0.4,1,1.6,1h3.2c4.1,0,5.6,1.6,5.6,3.9c0,2.8-2.7,5-7.9,5c-4.5,0-5.8-1.5-5.8-3.2
			c0-1.3,1-2.4,3-3.1l0.4,0.2c-0.6,0.8-0.8,1.3-0.8,2.1c0,1.6,1.1,2.3,3.6,2.3C225.4,912.9,226.8,912,226.8,910.9z M222.7,895
			c3.8,0,5.6,1.8,5.6,4.4c0,2.4-1.8,4.3-5.6,4.3c-3.9,0-5.6-1.8-5.6-4.3C217.1,896.8,218.9,895,222.7,895z M220.9,899.3
			c0,1.9,0.5,3.1,1.8,3.1c1.3,0,1.9-1.2,1.9-3.1c0-1.9-0.6-3-1.8-3C221.5,896.2,220.9,897.4,220.9,899.3z M230,894.9l0.4,0.3v2.1
			h-3.9v-0.9L230,894.9z"/>
		<path d="M244,900.7c0,0.6,0,1-0.1,1.5h-10.6v-1.4h5.1c1.3,0,1.6-0.5,1.6-1.7c0-1.8-0.8-2.7-1.8-2.7c-1.1,0-2.1,1.2-2.1,5.1
			c0,3.3,1.6,4.8,3.6,4.8c1.5,0,2.5-0.6,3.3-1.4l0.9,0.9c-1.1,2.1-3,3.2-5.7,3.2c-3.9,0-6.7-2.6-6.7-6.9c0-4.5,3.5-6.9,7-6.9
			C242,895,244,897.4,244,900.7z"/>
		<path d="M245.6,901.8c0-4.1,3-6.9,6.9-6.9c3.8,0,6.9,2.7,6.9,6.9s-2.7,7-6.9,7C248.2,908.8,245.6,906,245.6,901.8z M254.7,901.9
			c0-3.8-0.8-5.5-2.3-5.5c-1.5,0-2.3,1.7-2.3,5.5c0,3.9,0.8,5.5,2.3,5.5C253.9,907.4,254.7,905.7,254.7,901.9z"/>
		<path d="M261.1,900.3h7v2.4h-7V900.3z"/>
		<path d="M274.5,901.4c0,3.1,1.5,4.8,3.8,4.8c1.3,0,2.3-0.6,3-1.5l0.9,0.8c-1,2.2-3,3.2-5.5,3.2c-3.7,0-6.7-2.4-6.7-6.9
			c0-4.4,3.3-7,7.3-7c2.9,0,4.8,1.8,5,3.9c-0.3,1-0.9,1.4-1.8,1.4c-1.1,0-1.9-0.7-2.1-2.6l-0.2-1.9l2,1.1c-0.8-0.4-1.5-0.6-2.4-0.6
			C276.2,896.3,274.5,897.8,274.5,901.4z"/>
		<path d="M283.8,901.8c0-4.1,3-6.9,6.9-6.9c3.8,0,6.9,2.7,6.9,6.9s-2.7,7-6.9,7C286.5,908.8,283.8,906,283.8,901.8z M293,901.9
			c0-3.8-0.8-5.5-2.3-5.5c-1.5,0-2.3,1.7-2.3,5.5c0,3.9,0.8,5.5,2.3,5.5C292.2,907.4,293,905.7,293,901.9z"/>
		<path d="M306.5,906.5c1.3,0,2.2-1,3.1-2.3l0.3,0.4c-1.3,2.9-3,4.2-5.4,4.2c-3.1,0-5.4-2.4-5.4-6.8c0-4.4,2.9-7.1,5.9-7.1
			c2.3,0,3.5,1.3,4.7,3.7l-0.3,0.5c-1.1-1.3-1.8-1.9-2.9-1.9c-1.6,0-2.9,1.5-2.9,4.7C303.7,904.9,304.8,906.5,306.5,906.5z
			 M313.8,907.2v1.3l-5.3,0.3l-0.3-2.4v-9l0.2-0.3v-5.6l-1.9-0.3V890l5.7-1.2l0.4,0.3l-0.1,3.8v15.6l-1.8-2L313.8,907.2z"/>
		<path d="M327.7,900.7c0,0.6,0,1-0.1,1.5h-10.6v-1.4h5.1c1.3,0,1.6-0.5,1.6-1.7c0-1.8-0.8-2.7-1.8-2.7c-1.1,0-2.1,1.2-2.1,5.1
			c0,3.3,1.6,4.8,3.6,4.8c1.5,0,2.5-0.6,3.3-1.4l0.9,0.9c-1.1,2.1-3,3.2-5.7,3.2c-3.9,0-6.7-2.6-6.7-6.9c0-4.5,3.5-6.9,7-6.9
			C325.6,895,327.7,897.4,327.7,900.7z"/>
		<path d="M336.6,906.5c1.3,0,2.2-1,3.1-2.3l0.3,0.4c-1.3,2.9-3,4.2-5.4,4.2c-3.1,0-5.4-2.4-5.4-6.8c0-4.4,2.9-7.1,5.9-7.1
			c2.3,0,3.5,1.3,4.7,3.7l-0.3,0.5c-1.1-1.3-1.8-1.9-2.9-1.9c-1.6,0-2.9,1.5-2.9,4.7C333.8,904.9,334.9,906.5,336.6,906.5z
			 M343.9,907.2v1.3l-5.3,0.3l-0.3-2.4v-9l0.2-0.3v-5.6l-1.9-0.3V890l5.7-1.2l0.4,0.3l-0.1,3.8v15.6l-1.8-2L343.9,907.2z"/>
		<path d="M363.5,900.7c0,0.6,0,1-0.1,1.5h-10.6v-1.4h5.1c1.3,0,1.6-0.5,1.6-1.7c0-1.8-0.8-2.7-1.8-2.7c-1.1,0-2.1,1.2-2.1,5.1
			c0,3.3,1.6,4.8,3.6,4.8c1.5,0,2.5-0.6,3.3-1.4l0.9,0.9c-1.1,2.1-3,3.2-5.7,3.2c-3.9,0-6.7-2.6-6.7-6.9c0-4.5,3.5-6.9,7-6.9
			C361.5,895,363.5,897.4,363.5,900.7z"/>
		<path d="M366.6,897l-2.5-0.5v-1.2h7.7v1.2l-2.5,0.5H366.6z M369.5,895.4l3.5,9.6l-1.8,2.9l4.2-12.5h1.9l-5,13.1h-2.1l-5.5-13.1
			H369.5z M375.5,897l-2.3-0.4v-1.2h5.1v1.2l-2.2,0.4H375.5z"/>
		<path d="M391.8,900.7c0,0.6,0,1-0.1,1.5h-10.6v-1.4h5.1c1.3,0,1.6-0.5,1.6-1.7c0-1.8-0.8-2.7-1.8-2.7c-1.1,0-2.1,1.2-2.1,5.1
			c0,3.3,1.6,4.8,3.6,4.8c1.5,0,2.5-0.6,3.3-1.4l0.9,0.9c-1.1,2.1-3,3.2-5.7,3.2c-3.9,0-6.7-2.6-6.7-6.9c0-4.5,3.5-6.9,7-6.9
			C389.8,895,391.8,897.4,391.8,900.7z"/>
		<path d="M394.8,908.4c0.1-1.2,0.1-4,0.1-5.7v-1.6c0-1.5,0-2-0.1-3.1l-1.7-0.2v-1.1l5.3-1.8l0.5,0.3l0.2,3v4.5c0,1.7,0,4.5,0.1,5.7
			H394.8z M400.5,907.2v1.3h-7.1v-1.3l2.5-0.5h2.1L400.5,907.2z M407.3,899.6v3.1c0,1.7,0,4.5,0.1,5.7h-4.5c0.1-1.2,0.1-3.9,0.1-5.7
			v-2.8c0-1.7-0.4-2.3-1.5-2.3c-1,0-2.3,0.7-3.3,2h-0.9v-1.7h1.8l-1,0.8c1.9-2.7,3.4-3.6,5.4-3.6C405.7,895,407.3,896.5,407.3,899.6
			z M406,906.6l2.6,0.5v1.3h-7.1v-1.3l2.4-0.5H406z"/>
		<path d="M417,906.6c0.5,0,0.9-0.2,1.5-0.6l0.7,0.7c-0.7,1.4-2,2.2-3.9,2.2c-2.4,0-3.9-1.1-3.9-3.8c0-0.9,0-1.7,0-2.7v-5.1h-1.7
			v-1.6l3.2-0.4l-1.5,1.1l1.7-4.7h2.8l-0.1,4.9v8.3C415.6,906,416.2,906.6,417,906.6z M418.4,895.4v1.9h-5v-1.9H418.4z"/>
		<path d="M419.7,907.6l0.1-3.3h2.2l0.6,3.6l-1.5-0.5v-1.1c1.2,0.7,2.1,1.1,3.4,1.1c1.6,0,2.4-0.5,2.4-1.6c0-0.8-0.5-1.4-2.3-1.9
			l-1.5-0.4c-2.1-0.6-3.3-2-3.3-4c0-2.5,2-4.4,5.6-4.4c1.6,0,2.9,0.4,4.3,1.1l-0.2,3h-2.2l-0.8-3.3l1.5,0.6v1
			c-1-0.6-1.5-0.9-2.8-0.9c-1.2,0-2,0.5-2,1.5c0,0.7,0.4,1.3,2.3,1.8l1.3,0.4c2.6,0.8,3.6,2.2,3.6,4.2c0,2.9-2.3,4.5-6.1,4.5
			C422.7,908.8,421.2,908.4,419.7,907.6z"/>
	</g>
</g>
</svg>
